<svg xmlns="http://www.w3.org/2000/svg" viewBox="0 0 64 64" role="img" aria-label="GSO">
  <defs>
    <linearGradient id="gsoFav" x1="0" y1="0" x2="1" y2="1">
      <stop offset="0%" stop-color="#1f4f73"/>
      <stop offset="100%" stop-color="#2f6e9d"/>
    </linearGradient>
  </defs>
  <rect width="64" height="64" rx="14" fill="url(#gsoFav)"/>
  <path d="M18 21c0-4.3 3.6-8 8.5-8H39v6.6H27.1c-1.9 0-3 1-3 2.4 0 1.5 1 2.2 3.1 2.6l5.7.9c5.3.8 8 3.6 8 8.2 0 5.8-4.5 9.3-10.8 9.3H18.6v-6.7h11.2c2.6 0 4.3-1 4.3-2.9 0-1.7-1.2-2.5-3.9-2.9l-5.7-.9c-4.5-.7-6.5-3.7-6.5-8.6Z" fill="#fff"/>
  <circle cx="47" cy="46" r="4.6" fill="#ee6c4d"/>
</svg>
